<?xml version="1.0" encoding="UTF-8" standalone="no"?>
<!DOCTYPE svg PUBLIC "-//W3C//DTD SVG 1.1//EN"
 "http://www.w3.org/Graphics/SVG/1.1/DTD/svg11.dtd">
<!-- Generated by graphviz version 9.0.0 (20230911.1827)
 -->
<!-- Title: foo Pages: 1 -->
<svg width="409pt" height="53pt"
 viewBox="0.00 0.00 408.93 53.48" xmlns="http://www.w3.org/2000/svg" xmlns:xlink="http://www.w3.org/1999/xlink">
<g id="graph0" class="graph" transform="scale(1 1) rotate(0) translate(4 49.48)">
<title>foo</title>
<polygon fill="white" stroke="none" points="-4,4 -4,-49.48 404.93,-49.48 404.93,4 -4,4"/>
<!-- Foo.org -->
<g id="node1" class="node">
<title>Foo.org</title>
<ellipse fill="none" stroke="green" cx="40.09" cy="-22.74" rx="40.09" ry="18"/>
<text text-anchor="middle" x="40.09" y="-17.69" font-family="Times,serif" font-size="14.00">Foo.org</text>
</g>
<!-- FooBar.py -->
<g id="node3" class="node">
<title>FooBar.py</title>
<ellipse fill="none" stroke="orange" cx="202" cy="-22.74" rx="49.82" ry="18"/>
<text text-anchor="middle" x="202" y="-17.69" font-family="Times,serif" font-size="14.00">FooBar.py</text>
</g>
<!-- Foo.org&#45;&gt;FooBar.py -->
<g id="edge1" class="edge">
<title>Foo.org&#45;&gt;FooBar.py</title>
<path fill="none" stroke="orange" d="M78.46,-28.58C97.8,-29.49 121.68,-29.72 143.27,-29.26"/>
<polygon fill="orange" stroke="orange" points="143.23,-32.76 153.13,-28.99 143.04,-25.77 143.23,-32.76"/>
<text text-anchor="middle" x="127.36" y="-32.12" font-family="Times,serif" font-size="14.00" fill="orange">tangle</text>
</g>
<!-- Bar.org -->
<g id="node2" class="node">
<title>Bar.org</title>
<ellipse fill="none" stroke="blue" cx="362.37" cy="-22.74" rx="38.56" ry="18"/>
<text text-anchor="middle" x="362.37" y="-17.69" font-family="Times,serif" font-size="14.00">Bar.org</text>
</g>
<!-- Bar.org&#45;&gt;FooBar.py -->
<g id="edge2" class="edge">
<title>Bar.org&#45;&gt;FooBar.py</title>
<path fill="none" stroke="orange" d="M325.58,-16.96C306.37,-16.01 282.42,-15.76 260.72,-16.21"/>
<polygon fill="orange" stroke="orange" points="260.7,-12.71 250.8,-16.48 260.89,-19.71 260.7,-12.71"/>
<text text-anchor="middle" x="276.65" y="-3.29" font-family="Times,serif" font-size="14.00" fill="orange">tangle</text>
</g>
<!-- FooBar.py&#45;&gt;Foo.org -->
<g id="edge3" class="edge">
<title>FooBar.py&#45;&gt;Foo.org</title>
<path fill="none" stroke="green" d="M154.73,-16.54C134.35,-15.84 110.5,-15.81 89.85,-16.46"/>
<polygon fill="green" stroke="green" points="89.8,-12.96 79.95,-16.84 90.07,-19.95 89.8,-12.96"/>
<text text-anchor="middle" x="122.29" y="-3.2" font-family="Times,serif" font-size="14.00" fill="green">detangle</text>
</g>
<!-- FooBar.py&#45;&gt;Bar.org -->
<g id="edge4" class="edge">
<title>FooBar.py&#45;&gt;Bar.org</title>
<path fill="none" stroke="blue" d="M249.25,-28.96C269.66,-29.66 293.51,-29.67 314.04,-28.99"/>
<polygon fill="blue" stroke="blue" points="314.01,-32.5 323.86,-28.59 313.72,-25.5 314.01,-32.5"/>
<text text-anchor="middle" x="304.52" y="-32.18" font-family="Times,serif" font-size="14.00" fill="blue">detangle</text>
</g>
</g>
</svg>
