<?xml version="1.0" encoding="UTF-8" standalone="no"?>
<!DOCTYPE svg PUBLIC "-//W3C//DTD SVG 1.1//EN"
 "http://www.w3.org/Graphics/SVG/1.1/DTD/svg11.dtd">
<!-- Generated by graphviz version 8.0.5 (20230430.1635)
 -->
<!-- Title: foo Pages: 1 -->
<svg width="469pt" height="55pt"
 viewBox="0.00 0.00 468.72 55.16" xmlns="http://www.w3.org/2000/svg" xmlns:xlink="http://www.w3.org/1999/xlink">
<g id="graph0" class="graph" transform="scale(1 1) rotate(0) translate(4 51.16)">
<title>foo</title>
<polygon fill="white" stroke="none" points="-4,4 -4,-51.16 464.72,-51.16 464.72,4 -4,4"/>
<!-- Foo.org -->
<g id="node1" class="node">
<title>Foo.org</title>
<ellipse fill="none" stroke="green" cx="49.1" cy="-23.58" rx="49.1" ry="18"/>
<text text-anchor="middle" x="49.1" y="-18.91" font-family="Times,serif" font-size="14.00">Foo.org</text>
</g>
<!-- FooBar.py -->
<g id="node3" class="node">
<title>FooBar.py</title>
<ellipse fill="none" stroke="orange" cx="231.41" cy="-23.58" rx="61.2" ry="18"/>
<text text-anchor="middle" x="231.41" y="-18.91" font-family="Times,serif" font-size="14.00">FooBar.py</text>
</g>
<!-- Foo.org&#45;&gt;FooBar.py -->
<g id="edge1" class="edge">
<title>Foo.org&#45;&gt;FooBar.py</title>
<path fill="none" stroke="orange" d="M95.58,-29.55C115.98,-30.33 140.34,-30.52 162.77,-30.14"/>
<polygon fill="orange" stroke="orange" points="162.67,-33.63 172.59,-29.91 162.52,-26.63 162.67,-33.63"/>
<text text-anchor="middle" x="140.42" y="-16.55" font-family="Times,serif" font-size="14.00" fill="orange">tangle</text>
</g>
<!-- Bar.org -->
<g id="node2" class="node">
<title>Bar.org</title>
<ellipse fill="none" stroke="blue" cx="412.67" cy="-23.58" rx="48.05" ry="18"/>
<text text-anchor="middle" x="412.67" y="-18.91" font-family="Times,serif" font-size="14.00">Bar.org</text>
</g>
<!-- Bar.org&#45;&gt;FooBar.py -->
<g id="edge2" class="edge">
<title>Bar.org&#45;&gt;FooBar.py</title>
<path fill="none" stroke="orange" d="M366.93,-17.63C346.65,-16.84 322.36,-16.64 299.98,-17.01"/>
<polygon fill="orange" stroke="orange" points="300.1,-13.53 290.17,-17.24 300.25,-20.53 300.1,-13.53"/>
<text text-anchor="middle" x="333.45" y="-4.02" font-family="Times,serif" font-size="14.00" fill="orange">tangle</text>
</g>
<!-- FooBar.py&#45;&gt;Foo.org -->
<g id="edge3" class="edge">
<title>FooBar.py&#45;&gt;Foo.org</title>
<path fill="none" stroke="green" d="M173.48,-17.25C152.17,-16.69 128.05,-16.69 106.77,-17.25"/>
<polygon fill="green" stroke="green" points="106.81,-13.78 96.93,-17.6 107.03,-20.78 106.81,-13.78"/>
<text text-anchor="middle" x="140.12" y="-3.95" font-family="Times,serif" font-size="14.00" fill="green">detangle</text>
</g>
<!-- FooBar.py&#45;&gt;Bar.org -->
<g id="edge4" class="edge">
<title>FooBar.py&#45;&gt;Bar.org</title>
<path fill="none" stroke="blue" d="M289.26,-29.92C310.61,-30.48 334.77,-30.47 356.01,-29.89"/>
<polygon fill="blue" stroke="blue" points="355.94,-33.36 365.82,-29.54 355.72,-26.37 355.94,-33.36"/>
<text text-anchor="middle" x="353.76" y="-33.86" font-family="Times,serif" font-size="14.00" fill="blue">detangle</text>
</g>
</g>
</svg>
