<?xml version="1.0" encoding="UTF-8" standalone="no"?>
<!DOCTYPE svg PUBLIC "-//W3C//DTD SVG 1.1//EN"
 "http://www.w3.org/Graphics/SVG/1.1/DTD/svg11.dtd">
<!-- Generated by graphviz version 9.0.0 (20230911.1827)
 -->
<!-- Title: foo Pages: 1 -->
<svg width="218pt" height="133pt"
 viewBox="0.00 0.00 217.92 132.50" xmlns="http://www.w3.org/2000/svg" xmlns:xlink="http://www.w3.org/1999/xlink">
<g id="graph0" class="graph" transform="scale(1 1) rotate(0) translate(4 128.5)">
<title>foo</title>
<polygon fill="white" stroke="none" points="-4,4 -4,-128.5 213.92,-128.5 213.92,4 -4,4"/>
<!-- Foo.org -->
<g id="node1" class="node">
<title>Foo.org</title>
<ellipse fill="none" stroke="green" cx="92.17" cy="-106.5" rx="40.09" ry="18"/>
<text text-anchor="middle" x="92.17" y="-101.45" font-family="Times,serif" font-size="14.00">Foo.org</text>
</g>
<!-- Foo.py -->
<g id="node2" class="node">
<title>Foo.py</title>
<ellipse fill="none" stroke="blue" cx="38.17" cy="-18" rx="37.02" ry="18"/>
<text text-anchor="middle" x="38.17" y="-12.95" font-family="Times,serif" font-size="14.00">Foo.py</text>
</g>
<!-- Foo.org&#45;&gt;Foo.py -->
<g id="edge1" class="edge">
<title>Foo.org&#45;&gt;Foo.py</title>
<path fill="none" stroke="blue" d="M53.91,-100.53C35.32,-95.97 14.57,-87.24 3.17,-70.5 -3.36,-60.92 1.72,-50.34 9.82,-41.27"/>
<polygon fill="blue" stroke="blue" points="12.06,-43.97 16.79,-34.49 7.18,-38.96 12.06,-43.97"/>
<text text-anchor="middle" x="19.67" y="-57.2" font-family="Times,serif" font-size="14.00" fill="blue">tangle</text>
</g>
<!-- Bar.py -->
<g id="node3" class="node">
<title>Bar.py</title>
<ellipse fill="none" stroke="blue" cx="146.17" cy="-18" rx="35.49" ry="18"/>
<text text-anchor="middle" x="146.17" y="-12.95" font-family="Times,serif" font-size="14.00">Bar.py</text>
</g>
<!-- Foo.org&#45;&gt;Bar.py -->
<g id="edge2" class="edge">
<title>Foo.org&#45;&gt;Bar.py</title>
<path fill="none" stroke="blue" d="M102.58,-88.82C110.27,-76.5 120.9,-59.47 129.74,-45.32"/>
<polygon fill="blue" stroke="blue" points="132.66,-47.25 134.99,-36.91 126.72,-43.54 132.66,-47.25"/>
<text text-anchor="middle" x="140.67" y="-57.2" font-family="Times,serif" font-size="14.00" fill="blue">tangle</text>
</g>
<!-- Foo.py&#45;&gt;Foo.org -->
<g id="edge3" class="edge">
<title>Foo.py&#45;&gt;Foo.org</title>
<path fill="none" stroke="green" d="M46.09,-35.63C51.2,-45.92 58.22,-59.26 65.42,-70.5 67.44,-73.66 69.67,-76.89 71.95,-80.05"/>
<polygon fill="green" stroke="green" points="69.09,-82.06 77.89,-87.96 74.68,-77.86 69.09,-82.06"/>
<text text-anchor="middle" x="89.04" y="-57.2" font-family="Times,serif" font-size="14.00" fill="green">detangle</text>
</g>
<!-- Bar.py&#45;&gt;Foo.org -->
<g id="edge4" class="edge">
<title>Bar.py&#45;&gt;Foo.org</title>
<path fill="none" stroke="green" d="M157.33,-35.22C163.15,-45.85 167.79,-59.71 161.17,-70.5 155.43,-79.84 146.33,-86.79 136.6,-91.91"/>
<polygon fill="green" stroke="green" points="135.36,-88.64 127.73,-95.99 138.28,-95 135.36,-88.64"/>
<text text-anchor="middle" x="187.04" y="-57.2" font-family="Times,serif" font-size="14.00" fill="green">detangle</text>
</g>
</g>
</svg>
