<?xml version="1.0" encoding="UTF-8" standalone="no"?>
<!DOCTYPE svg PUBLIC "-//W3C//DTD SVG 1.1//EN"
 "http://www.w3.org/Graphics/SVG/1.1/DTD/svg11.dtd">
<!-- Generated by graphviz version 8.0.5 (20230430.1635)
 -->
<!-- Title: foo Pages: 1 -->
<svg width="274pt" height="133pt"
 viewBox="0.00 0.00 273.67 133.25" xmlns="http://www.w3.org/2000/svg" xmlns:xlink="http://www.w3.org/1999/xlink">
<g id="graph0" class="graph" transform="scale(1 1) rotate(0) translate(4 129.25)">
<title>foo</title>
<polygon fill="white" stroke="none" points="-4,4 -4,-129.25 269.67,-129.25 269.67,4 -4,4"/>
<!-- Foo.org -->
<g id="node1" class="node">
<title>Foo.org</title>
<ellipse fill="none" stroke="green" cx="112.42" cy="-107.25" rx="49.1" ry="18"/>
<text text-anchor="middle" x="112.42" y="-102.58" font-family="Times,serif" font-size="14.00">Foo.org</text>
</g>
<!-- Foo.py -->
<g id="node2" class="node">
<title>Foo.py</title>
<ellipse fill="none" stroke="blue" cx="48.42" cy="-18" rx="44.37" ry="18"/>
<text text-anchor="middle" x="48.42" y="-13.32" font-family="Times,serif" font-size="14.00">Foo.py</text>
</g>
<!-- Foo.org&#45;&gt;Foo.py -->
<g id="edge1" class="edge">
<title>Foo.org&#45;&gt;Foo.py</title>
<path fill="none" stroke="blue" d="M64.16,-103.33C41.89,-99.27 17.36,-90.36 3.42,-71.25 -4.52,-60.35 3.24,-48.93 14.42,-39.55"/>
<polygon fill="blue" stroke="blue" points="16.09,-41.92 21.99,-33.12 11.89,-36.32 16.09,-41.92"/>
<text text-anchor="middle" x="25.92" y="-57.95" font-family="Times,serif" font-size="14.00" fill="blue">tangle</text>
</g>
<!-- Bar.py -->
<g id="node3" class="node">
<title>Bar.py</title>
<ellipse fill="none" stroke="blue" cx="177.42" cy="-18" rx="43.32" ry="18"/>
<text text-anchor="middle" x="177.42" y="-13.32" font-family="Times,serif" font-size="14.00">Bar.py</text>
</g>
<!-- Foo.org&#45;&gt;Bar.py -->
<g id="edge2" class="edge">
<title>Foo.org&#45;&gt;Bar.py</title>
<path fill="none" stroke="blue" d="M124.95,-89.43C134.55,-76.55 147.93,-58.59 158.78,-44.03"/>
<polygon fill="blue" stroke="blue" points="161.98,-46.59 165.15,-36.48 156.37,-42.4 161.98,-46.59"/>
<text text-anchor="middle" x="173.92" y="-57.95" font-family="Times,serif" font-size="14.00" fill="blue">tangle</text>
</g>
<!-- Foo.py&#45;&gt;Foo.org -->
<g id="edge3" class="edge">
<title>Foo.py&#45;&gt;Foo.org</title>
<path fill="none" stroke="green" d="M53.61,-36.04C57.4,-46.79 63.27,-60.61 71.17,-71.25 74.45,-75.66 78.38,-79.88 82.5,-83.77"/>
<polygon fill="green" stroke="green" points="79.7,-86.85 89.52,-90.81 84.31,-81.58 79.7,-86.85"/>
<text text-anchor="middle" x="102.55" y="-57.95" font-family="Times,serif" font-size="14.00" fill="green">detangle</text>
</g>
<!-- Bar.py&#45;&gt;Foo.org -->
<g id="edge4" class="edge">
<title>Bar.py&#45;&gt;Foo.org</title>
<path fill="none" stroke="green" d="M192.47,-34.86C200.82,-45.63 208.1,-59.93 200.42,-71.25 192.55,-82.85 180.16,-90.61 167.13,-95.79"/>
<polygon fill="green" stroke="green" points="166.41,-92.69 158.11,-99.28 168.71,-99.3 166.41,-92.69"/>
<text text-anchor="middle" x="234.55" y="-57.95" font-family="Times,serif" font-size="14.00" fill="green">detangle</text>
</g>
</g>
</svg>
